<?xml version="1.0" encoding="UTF-8" standalone="no"?><!DOCTYPE svg PUBLIC "-//W3C//DTD SVG 1.1//EN" "http://www.w3.org/Graphics/SVG/1.1/DTD/svg11.dtd"><svg width="100%" height="100%" viewBox="0 0 4000 150" version="1.1" xmlns="http://www.w3.org/2000/svg" xmlns:xlink="http://www.w3.org/1999/xlink" xml:space="preserve" xmlns:serif="http://www.serif.com/" style="fill-rule:evenodd;clip-rule:evenodd;"><path id="path1360" d="M496.057,155.056c-159.693,-24.072 -319.386,-48.144 -501.436,-48.144m501.686,48.155c159.692,24.072 319.385,48.144 501.435,48.144m500.976,-48.145c-159.693,24.072 -319.386,48.144 -501.436,48.144m501.403,-48.14c159.693,-24.072 319.386,-48.145 501.436,-48.145m500.975,48.146c-159.693,-24.073 -319.386,-48.145 -501.436,-48.145m501.343,48.133c159.693,24.072 319.386,48.145 501.436,48.145m500.975,-48.146c-159.693,24.072 -319.386,48.145 -501.436,48.145m501.403,-48.141c159.693,-24.072 319.386,-48.144 501.436,-48.144" style="fill:none;stroke:#2d3035;stroke-width:178.32px;"/><rect x="-88.089" y="130.805" width="433.821" height="14.809" style="fill:none;stroke:#2d3035;stroke-width:132.05px;stroke-linecap:round;stroke-linejoin:round;stroke-miterlimit:1.5;"/></svg>