<?xml version="1.0" encoding="UTF-8" standalone="no"?><!DOCTYPE svg PUBLIC "-//W3C//DTD SVG 1.1//EN" "http://www.w3.org/Graphics/SVG/1.1/DTD/svg11.dtd"><svg width="100%" height="100%" viewBox="0 0 4000 150" version="1.1" xmlns="http://www.w3.org/2000/svg" xmlns:xlink="http://www.w3.org/1999/xlink" xml:space="preserve" xmlns:serif="http://www.serif.com/" style="fill-rule:evenodd;clip-rule:evenodd;"><path id="path1360" d="M328.564,126.056c-106.352,-24.072 -212.703,-48.144 -333.943,-48.144m334.109,48.155c106.351,24.072 212.702,48.144 333.942,48.144m333.636,-48.145c-106.351,24.072 -212.702,48.144 -333.942,48.144m333.92,-48.14c106.352,-24.072 212.703,-48.145 333.943,-48.145m333.636,48.146c-106.351,-24.073 -212.702,-48.145 -333.943,-48.145m333.881,48.133c106.351,24.072 212.702,48.145 333.942,48.145m333.636,-48.146c-106.351,24.072 -212.702,48.145 -333.942,48.145m333.92,-48.141c106.352,-24.072 212.703,-48.144 333.943,-48.144m333.636,48.145c-106.351,-24.072 -212.702,-48.144 -333.943,-48.144m333.929,48.141c106.351,24.072 212.702,48.144 333.943,48.144m333.635,-48.145c-106.351,24.072 -212.702,48.144 -333.942,48.144m333.922,-48.14c106.351,-24.072 212.702,-48.145 333.942,-48.145" style="fill:none;stroke:#2d3035;stroke-width:131.55px;"/><rect x="-88.089" y="130.805" width="433.821" height="14.809" style="fill:none;stroke:#2d3035;stroke-width:132.05px;stroke-linecap:round;stroke-linejoin:round;stroke-miterlimit:1.5;"/><rect x="1095.88" y="155.488" width="417.036" height="17.771" style="fill:none;stroke:#2d3035;stroke-width:132.05px;stroke-linecap:round;stroke-linejoin:round;stroke-miterlimit:1.5;"/><rect x="2476.53" y="142.406" width="402.834" height="0.74" style="fill:none;stroke:#2d3035;stroke-width:132.05px;stroke-linecap:round;stroke-linejoin:round;stroke-miterlimit:1.5;"/><rect x="3804.25" y="135.931" width="192.379" height="9.626" style="fill:none;stroke:#2d3035;stroke-width:132.05px;stroke-linecap:round;stroke-linejoin:round;stroke-miterlimit:1.5;"/></svg>